<?xml version="1.0" standalone="no"?>
<!DOCTYPE svg PUBLIC "-//W3C//DTD SVG 20010904//EN"
 "http://www.w3.org/TR/2001/REC-SVG-20010904/DTD/svg10.dtd">
<svg version="1.0" xmlns="http://www.w3.org/2000/svg"
 width="142.000000pt" height="124.000000pt" viewBox="0 0 142.000000 124.000000"
 preserveAspectRatio="xMidYMid meet">

<g transform="translate(0.000000,124.000000) scale(0.100000,-0.100000)"
fill="#000000" stroke="none">
<path d="M940 955 c-88 -19 -103 -24 -276 -93 -146 -59 -268 -92 -337 -92 -51
0 -132 27 -167 56 -30 26 -60 26 -60 1 0 -23 56 -93 93 -116 58 -36 146 -61
211 -61 81 0 172 26 350 100 81 34 171 68 202 76 80 21 174 18 242 -7 90 -33
112 -35 112 -10 0 27 -101 102 -175 130 -76 29 -120 32 -195 16z m157 -29 c46
-12 155 -75 169 -97 3 -5 -19 1 -48 13 -42 17 -73 21 -153 21 -112 0 -146 -10
-410 -120 l-140 -58 -110 0 c-125 1 -174 17 -235 80 -39 40 -36 43 18 15 22
-11 66 -25 98 -30 101 -17 179 1 405 91 164 65 247 89 339 97 8 1 38 -4 67
-12z"/>
<path d="M875 776 c-78 -24 -151 -51 -225 -83 -19 -8 -44 -19 -55 -24 -174
-74 -367 -76 -435 -4 -42 45 -75 22 -46 -33 51 -99 209 -162 351 -140 71 10
170 42 260 84 149 68 230 93 325 100 66 6 84 3 150 -20 95 -35 104 -36 108
-11 3 24 -63 78 -148 121 -77 40 -175 43 -285 10z m260 -26 c46 -20 138 -80
132 -87 -2 -1 -28 6 -58 17 -143 50 -226 37 -488 -74 -168 -72 -223 -86 -324
-86 -63 0 -97 5 -132 20 -59 25 -102 55 -116 81 -10 20 -10 20 23 3 48 -25
126 -44 182 -44 66 0 145 22 310 87 78 30 155 59 171 65 130 42 229 48 300 18z"/>
<path d="M929 625 c-68 -15 -195 -58 -267 -91 -185 -85 -349 -108 -449 -65
-29 13 -58 29 -64 37 -16 20 -49 18 -49 -3 0 -75 174 -183 296 -183 74 0 190
30 289 74 17 8 56 25 87 39 150 68 298 96 384 73 27 -7 66 -21 88 -30 50 -21
66 -20 66 4 0 20 -77 87 -130 115 -87 45 -149 52 -251 30z m224 -46 c47 -24
110 -69 105 -75 -3 -2 -28 5 -56 16 -37 14 -77 20 -135 20 -97 0 -173 -22
-353 -100 -196 -86 -302 -105 -412 -76 -58 16 -92 34 -135 74 -40 38 -33 42
23 14 36 -17 72 -26 132 -29 103 -7 160 7 357 86 133 53 223 83 291 95 49 9
141 -4 183 -25z"/>
</g>
</svg>
